<svg width="8" height="14" viewBox="0 0 8 14" fill="none" xmlns="http://www.w3.org/2000/svg">
<path d="M0.766602 13.0667C0.599935 12.9 0.516602 12.7027 0.516602 12.4747C0.516602 12.2471 0.599935 12.05 0.766602 11.8833L5.64994 7L0.749935 2.1C0.594379 1.94444 0.516602 1.75 0.516602 1.51667C0.516602 1.28333 0.599935 1.08333 0.766602 0.916666C0.933268 0.749999 1.1306 0.666666 1.3586 0.666666C1.58616 0.666666 1.78327 0.749999 1.94994 0.916666L7.54994 6.53333C7.6166 6.6 7.66394 6.67222 7.69194 6.75C7.71949 6.82778 7.73327 6.91111 7.73327 7C7.73327 7.08889 7.71949 7.17222 7.69194 7.25C7.66394 7.32778 7.6166 7.4 7.54994 7.46667L1.93327 13.0833C1.77771 13.2389 1.58616 13.3167 1.3586 13.3167C1.1306 13.3167 0.933268 13.2333 0.766602 13.0667Z" fill="#929292"/>
</svg>
